<svg width="212" height="37" viewBox="0 0 212 37" fill="none" xmlns="http://www.w3.org/2000/svg">
<path d="M75.1144 20.5901C75.1144 21.9823 74.6618 23.1866 73.7592 24.1289C72.8566 25.0712 71.7264 25.5212 70.3342 25.5212C68.9419 25.5212 67.8117 25.0686 66.8721 24.1289C65.9298 23.1866 65.4798 21.9823 65.4798 20.5901C65.4798 19.1978 65.9325 18.0306 66.8721 17.0883C67.8117 16.146 68.9419 15.659 70.3342 15.659C71.7264 15.659 72.8566 16.1486 73.7592 17.0883C74.6618 18.0306 75.1144 19.1978 75.1144 20.5901ZM60.5832 20.5901C60.4693 25.8229 65.0643 30.4152 70.2945 30.3014C72.4014 30.3014 74.5109 29.248 75.0747 28.0039V29.9997H79.9688V20.5874C80.0826 15.3546 75.5273 10.7623 70.2945 10.8761C65.0616 10.7623 60.4693 15.3546 60.5832 20.5874V20.5901ZM42.701 23.9013C42.701 28.0039 46.4277 30.3014 50.7951 30.3014C55.6521 30.3014 58.9262 28.2686 58.8892 24.2401C58.8892 21.5297 57.1211 20.0607 55.1253 19.4599C54.1089 19.1211 52.8676 18.8564 51.3985 18.5943C48.8761 18.1814 47.7856 17.84 47.7856 16.9374C47.7856 15.921 48.9899 15.2064 50.6098 15.2064C52.2297 15.2064 53.696 15.9978 53.696 17.0512H58.3651C58.3651 13.1736 55.2021 10.8761 50.6865 10.8761C46.171 10.8761 42.8942 13.2847 42.8942 16.5616C42.8942 19.3858 44.5511 20.8151 46.5072 21.4556C47.4865 21.7573 48.7279 22.0194 50.1969 22.2841C52.8702 22.7367 53.9978 23.0384 53.9978 24.1289C53.9978 25.2194 52.8676 25.9367 50.9115 25.9367C48.8417 25.9367 47.3727 25.1083 47.3727 23.9039H42.7036L42.701 23.9013ZM35.9621 20.5901C35.9621 21.9823 35.5094 23.1866 34.6069 24.1289C33.7043 25.0712 32.5741 25.5212 31.1818 25.5212C29.7896 25.5212 28.6594 25.0686 27.7197 24.1289C26.7775 23.1866 26.3275 21.9823 26.3275 20.5901C26.3275 19.1978 26.7801 18.0306 27.7197 17.0883C28.662 16.146 29.7896 15.659 31.1818 15.659C32.5741 15.659 33.7043 16.1486 34.6069 17.0883C35.5094 18.0306 35.9621 19.1978 35.9621 20.5901ZM21.4308 20.5901C21.317 25.8229 25.9093 30.4152 31.1421 30.3014C33.249 30.3014 35.3586 29.248 35.9224 28.0039V29.9997H40.8164V20.5874C40.9302 15.3546 36.375 10.7623 31.1421 10.8761C25.9093 10.7623 21.317 15.3546 21.4308 20.5874V20.5901ZM0.502072 20.5901C0.388257 25.8229 4.98056 30.4152 10.2134 30.3014C12.3971 30.3014 14.3557 29.6609 16.0471 28.3824C17.7411 27.1013 18.9083 25.4471 19.5092 23.4513H14.2022C13.2996 24.7695 11.9047 25.5212 10.2505 25.5212C8.85821 25.5212 7.728 25.0686 6.78836 24.1289C5.84608 23.1866 5.39612 21.9823 5.39612 20.5901C5.39612 19.1978 5.84873 18.0306 6.78836 17.0883C7.73065 16.146 8.85821 15.659 10.2505 15.659C12.0212 15.659 13.4876 16.5245 14.3531 17.9167H19.5489C18.9851 15.8469 17.8178 14.19 16.0868 12.8718C14.3928 11.5537 12.4341 10.8761 10.2134 10.8761C4.98056 10.7623 0.388257 15.3546 0.502072 20.5874V20.5901Z" stroke="#E5004D" stroke-miterlimit="22.93"/>
<path d="M211.097 20.1004C211.097 13.9649 207.823 10.876 202.815 10.876C197.807 10.876 194.533 13.9623 194.533 20.1004V30.0023H199.427V20.1004C199.427 17.0512 200.443 15.6589 202.815 15.6589C205.186 15.6589 206.203 17.0512 206.203 20.1004V30.0023H211.097V20.1004ZM177.932 20.59C177.932 19.1978 178.384 18.0305 179.324 17.0882C180.266 16.1459 181.394 15.6589 182.786 15.6589C184.178 15.6589 185.308 16.1486 186.211 17.0882C187.114 18.0305 187.566 19.1978 187.566 20.59C187.566 21.9823 187.114 23.1866 186.211 24.1289C185.308 25.0712 184.178 25.5211 182.786 25.5211C181.394 25.5211 180.264 25.0685 179.324 24.1289C178.382 23.1866 177.932 21.9823 177.932 20.59ZM192.463 20.59C192.577 15.3572 187.984 10.7649 182.752 10.8787C177.519 10.7649 172.926 15.3598 173.04 20.59C172.926 25.8229 177.519 30.4152 182.752 30.3014C187.984 30.4152 192.577 25.8229 192.463 20.59ZM157.04 18.5943C157.831 16.7865 159.375 15.6589 161.481 15.6589C163.4 15.6589 165.171 16.8262 165.923 18.5943H157.037H157.04ZM161.331 10.876C156.098 10.7622 151.656 15.4683 151.767 20.6271C151.654 25.8599 156.172 30.4152 161.481 30.3014C165.396 30.3014 168.861 27.9298 170.404 24.4677L164.568 24.4306C163.776 25.0712 162.874 25.5211 161.331 25.5211C159.11 25.5211 157.49 24.3539 157.04 22.509H171.007C171.121 21.7546 171.195 20.9659 171.158 20.1745C171.007 14.4149 166.113 10.876 161.333 10.876H161.331ZM149.698 20.1004C149.698 13.9649 146.423 10.876 141.416 10.876C136.408 10.876 133.134 13.9623 133.134 20.1004V30.0023H138.028V20.1004C138.028 17.0512 139.044 15.6589 141.416 15.6589C143.787 15.6589 144.804 17.0512 144.804 20.1004V30.0023H149.698V20.1004Z" stroke="#009FE3" stroke-miterlimit="22.93"/>
<path d="M94.7885 36.6855C93.3381 36.5399 92.2264 35.3144 92.2264 33.8401V22.0351C92.2264 21.7228 92.4831 21.4687 92.7981 21.4687C93.1131 21.4687 93.3698 21.7228 93.3698 22.0351V33.8401C93.3698 34.793 94.148 35.5659 95.1035 35.5659H117.377C118.332 35.5659 119.111 34.7903 119.111 33.8401V22.0351C119.111 21.7228 119.367 21.4687 119.682 21.4687C119.836 21.4687 119.979 21.5296 120.087 21.6354C120.193 21.7413 120.254 21.8842 120.251 22.0351V33.8401C120.251 35.3118 119.145 36.532 117.676 36.6855H94.7859H94.7885ZM89.7807 17.067C89.6245 17.067 89.4789 17.0061 89.3704 16.8949C89.2645 16.7864 89.2063 16.6435 89.2089 16.4899C89.2089 16.3391 89.2725 16.1988 89.381 16.0929L105.839 0.161458C105.945 0.0582306 106.088 0 106.239 0C106.39 0 106.53 0.0582306 106.639 0.161458L123.097 16.0929C123.173 16.167 123.224 16.257 123.25 16.3576V16.6408C123.226 16.7361 123.176 16.8234 123.107 16.8949C122.999 17.0061 122.853 17.067 122.697 17.067C122.541 17.067 122.406 17.0087 122.297 16.9055L106.239 1.36049L90.1803 16.9055C90.0718 17.0087 89.9315 17.067 89.7807 17.067Z" fill="#A0C518"/>
<path d="M108.653 24.401C108.653 23.8293 108.838 23.3528 109.222 22.9664C109.608 22.58 110.069 22.3788 110.641 22.3788C111.212 22.3788 111.673 22.58 112.043 22.9664C112.414 23.3528 112.599 23.8293 112.599 24.401C112.599 24.9727 112.414 25.465 112.043 25.8515C111.673 26.2379 111.21 26.4232 110.641 26.4232C110.071 26.4232 109.608 26.2379 109.222 25.8515C108.835 25.465 108.653 24.9727 108.653 24.401ZM114.606 24.401C114.653 22.257 112.771 20.3751 110.627 20.4228C108.483 20.3751 106.601 22.257 106.649 24.401C106.604 26.545 108.483 28.4269 110.627 28.3792C112.771 28.4242 114.653 26.545 114.606 24.401ZM99.8625 24.401C99.8625 23.8293 100.048 23.3528 100.418 22.9664C100.789 22.58 101.252 22.3788 101.821 22.3788C102.39 22.3788 102.853 22.58 103.24 22.9664C103.626 23.3528 103.812 23.8293 103.812 24.401C103.812 24.9727 103.626 25.465 103.24 25.8515C102.853 26.2379 102.393 26.4232 101.821 26.4232C101.249 26.4232 100.789 26.2379 100.418 25.8515C100.048 25.465 99.8625 24.9727 99.8625 24.401ZM101.834 28.3792C103.978 28.4242 105.844 26.545 105.797 24.401V17.4609H103.777V21.0077C103.237 20.6213 102.589 20.4228 101.834 20.4228C99.6904 20.3751 97.8085 22.257 97.8562 24.401C97.8112 26.545 99.6904 28.4269 101.834 28.3792Z" stroke="#EF7D00" stroke-miterlimit="22.93"/>
</svg>
