<svg width="102" height="103" viewBox="0 0 102 103" fill="none" xmlns="http://www.w3.org/2000/svg">
<path d="M11.7541 57.0582C12.0143 53.0422 11.3468 48.4153 11.7541 44.5011C11.8672 43.4151 13.0664 43.5169 13.1795 44.3993C13.3944 48.5624 12.8853 53.0309 13.1795 57.1714C13.3039 59.038 14.3673 60.8593 16.4715 60.8593H37.5358C37.5358 60.8593 37.6829 60.7236 37.6829 60.7122V50.8928C37.6829 50.8928 37.5472 50.7344 37.5811 50.6439H24.9221C24.8542 49.0262 25.0126 47.3406 24.9221 45.7342C24.7977 43.5961 24.3339 41.9331 21.9921 41.4693C21.2568 41.3222 20.8495 41.7068 20.974 40.6095C22.2863 40.6661 23.689 40.1683 24.3565 38.9805C24.8316 38.1207 24.7977 37.1591 24.9334 36.2089L24.8769 20.5633L24.4809 20.3597C20.94 20.9253 13.5867 18.4591 13.1795 23.8553V38.4488C13.0777 39.3085 11.7654 39.218 11.7654 38.347C11.5504 33.7313 12.0595 28.8442 11.7654 24.2626C11.6296 22.1358 10.7359 20.6312 8.47337 20.371H0.124573V37.7361C0.124573 37.8266 0.441326 38.7203 0.509202 38.8673C1.12009 40.157 2.61335 40.6887 3.97088 40.6208C4.06139 41.6842 3.81251 41.3222 3.12243 41.4466C2.09297 41.6163 1.1314 42.0462 0.611013 42.9852C0.520511 43.1549 0.124573 44.0938 0.124573 44.2183V60.8706H8.47337C10.6228 60.8706 11.6523 58.9701 11.7654 57.0809L11.7541 57.0582Z" fill="#FDC300"/>
<path d="M30.0128 79.5028C31.1554 80.0797 32.083 81.4599 33.4632 81.6183C36.0425 81.9124 36.4497 79.5706 38.3277 79.4914C39.9906 79.4236 41.1558 81.7879 42.7736 81.935C44.8325 82.116 44.8098 80.306 46.371 79.8535C49.482 78.9484 49.7761 82.9079 53.2265 81.4486C54.4596 80.9282 55.3194 79.3444 56.8353 79.6272C57.4009 79.729 57.5706 80.1702 58.2947 79.9327C58.9055 79.729 59.0752 79.1181 59.1318 78.5412C59.3128 76.7198 59.1431 74.6948 59.1318 72.8735C59.1092 70.7806 59.3694 69.0385 58.5775 67.0474C57.2991 63.8459 54.5728 62.1717 51.1902 61.9793C45.0474 61.6173 38.7236 62.149 32.5808 62.1151C32.0943 62.183 31.6531 62.3413 31.1893 62.4884C30.8273 62.6015 30.3295 62.6355 30.0807 62.9975C24.4356 65.7012 26.1777 72.0703 26.042 77.1158C26.6076 78.8014 28.6553 78.8353 30.0241 79.5141L30.0128 79.5028Z" fill="#FDC300"/>
<path d="M22.1051 81.8904C23.6889 81.5284 24.5826 80.3406 24.7184 78.7342C25.103 74.2996 24.4469 69.2767 24.6844 64.7856C24.4242 63.0547 23.259 61.9687 21.5168 61.7764H0.147054C0.147054 61.7764 0 61.9121 0 61.9234V102.027C0 102.027 0.135741 102.174 0.147054 102.174H21.5168C23.0101 102.174 24.5374 100.749 24.6844 99.2668C24.5034 95.0132 25.0125 90.4429 24.7184 86.2232C24.5826 84.2661 23.6889 83.2593 21.7997 82.8633C21.4716 82.7955 21.0417 82.9765 20.9625 82.5805C20.9399 82.49 20.9399 82.0488 20.9625 82.0262C21.0078 81.981 21.9128 81.947 22.1051 81.9018V81.8904ZM11.6521 72.1502C11.7539 71.8334 13.0775 72.0031 13.0436 72.4783L13.021 80.2048C12.8399 80.5669 11.6521 80.6121 11.6521 80.3519V72.1502ZM13.0436 91.5629C12.8852 92.2642 11.6521 92.0832 11.6521 91.8909V85.1598C12.4214 85.2277 12.987 84.8204 13.0775 85.816C13.2359 87.6373 12.9644 89.7189 13.0549 91.5741L13.0436 91.5629Z" fill="#FDC300"/>
<path d="M79.0308 60.8596C81.0897 61.018 84.6758 61.018 86.7348 60.8596C87.8095 60.7804 88.5901 60.475 88.7145 59.2871L88.6579 42.8271C88.3978 42.1709 88.081 41.7976 87.3343 41.7184C84.5288 41.4017 81.1123 41.9334 78.2502 41.741C77.5488 41.8768 77.1755 42.3972 77.0624 43.0759V59.2871C77.1755 60.475 77.9674 60.7691 79.0308 60.8596ZM82.5264 46.2209C82.6056 45.7118 83.2391 46.0738 83.2391 46.2209V56.244C83.2391 56.5381 82.5264 56.5381 82.5264 56.244V46.2209Z" fill="#FDC300"/>
<path d="M26.1777 29.4659H37.4226C37.4226 29.4659 37.6715 29.2283 37.6715 29.217V20.608C37.6715 20.608 37.5357 20.4609 37.5244 20.4609H26.0306V29.3188C26.0306 29.3188 26.1664 29.4659 26.1777 29.4659Z" fill="#FDC300"/>
<path d="M37.6715 49.2633V30.8348C37.6715 30.8348 37.5357 30.6764 37.5697 30.5859H26.1777C26.1777 30.5859 26.0306 30.7217 26.0306 30.733V49.4103H37.5244C37.5244 49.4103 37.6715 49.2746 37.6715 49.2633Z" fill="#FDC300"/>
<path d="M59.1318 86.7208C59.1318 86.5059 59.392 85.4651 59.0865 85.4651H42.0722C41.2124 85.4651 37.6941 88.6892 36.7438 89.3567C36.3026 89.6734 35.952 89.8884 35.3977 89.6056C33.7234 88.3498 32.2753 86.7887 30.2956 85.9968C29.8657 85.8271 28.5987 85.3633 28.1914 85.3633H26.3701C26.042 85.6235 26.3022 86.0194 26.3135 86.3249C26.4492 90.1712 26.2796 94.3003 26.5171 98.0788C26.6642 100.398 27.5466 101.857 30.0128 102.084C38.9159 101.993 47.8417 102.253 56.7222 101.948C58.996 101.224 59.2675 99.2666 59.2336 97.1625C59.177 93.7121 59.0187 90.2051 59.1205 86.7321L59.1318 86.7208Z" fill="#FDC300"/>
<path d="M98.0817 62.1715H79.4609C78.4201 62.3525 77.3793 62.9295 76.9494 63.925C76.8816 64.0947 76.5648 65.0562 76.5648 65.1581V102.015C76.5648 102.015 76.7006 102.162 76.7119 102.162H88.1038V88.2361C88.1604 88.1229 88.183 87.6025 88.2056 87.5799C88.2622 87.5347 89.6197 87.5233 89.6197 87.727V102.162H101.012C101.012 102.162 101.159 102.026 101.159 102.015V65.7576C101.159 63.9023 99.9709 62.3072 98.0704 62.1602L98.0817 62.1715ZM89.6197 81.0638C89.7216 81.5842 88.1717 81.5615 88.0925 81.1656V73.1675C88.1491 72.6923 88.2283 72.2738 88.7713 72.2285C89.4048 72.172 89.5519 72.6471 89.6084 73.1675C89.8573 75.6676 89.4274 78.5297 89.6084 81.0638H89.6197Z" fill="#FDC300"/>
<path d="M63.6004 56.6509C63.3288 50.7004 63.951 44.4444 63.6004 38.5165C63.5212 37.1703 63.2383 35.53 61.9147 34.8399C61.7564 34.7607 60.8287 34.4213 60.7156 34.4213H50.5907C50.5907 34.4213 50.4436 34.2856 50.4436 34.2743V31.1406C50.4436 30.9144 50.9301 30.5637 51.1903 30.5863C51.4165 30.5976 51.8577 30.9483 51.8577 31.1406V32.9168H63.6004C63.4307 29.5795 63.9171 25.9368 63.3854 22.6448C63.1705 21.2759 62.5935 20.0315 61.6772 18.9908C61.564 18.855 60.4893 17.7803 60.3649 17.9274C61.1681 20.6424 58.5549 20.9139 57.1747 19.1491C56.6883 18.5269 56.643 17.9387 56.7222 17.1694C56.8353 16.0042 57.7969 15.1218 57.2539 13.9113C56.8466 13.0063 55.6022 12.6104 54.833 12.0787C53.4076 11.1058 52.8193 9.75956 52.0161 8.31152L51.2581 11.0945C51.2355 12.452 53.8148 13.1307 52.1745 14.5448C50.6359 15.8684 48.1132 14.2054 47.3552 12.6669C45.1719 8.22099 49.8214 5.10999 48.4978 1.60304C48.3621 1.25234 47.5702 -0.116471 47.1629 0.00796963C47.0046 0.0984716 47.0272 0.211596 47.0045 0.358662C46.914 0.958238 46.9141 1.55781 46.7783 2.15739C45.7828 6.2526 41.8346 6.54671 42.57 11.9995C42.8302 13.9679 44.1764 16.3888 43.9727 18.1875C43.803 19.6356 42.3324 19.941 41.2464 19.1944L39.9228 18.0857C39.7418 18.2102 39.606 19.4206 39.606 19.7034C39.606 20.0654 39.8549 21.0723 39.7983 21.2985C39.7191 21.6266 38.6218 22.7353 38.8141 23.4593V41.4579C38.9499 43.0417 40.0925 44.3426 41.6876 44.5576H51.7106C51.7106 44.5576 51.8577 44.6933 51.8577 44.7046V50.1687C51.8577 50.542 51.145 50.7456 50.783 50.5307C50.7151 50.4854 50.4323 50.1121 50.4323 50.0669V45.9151C50.4323 45.9151 50.2965 45.768 50.2852 45.768H38.9385C38.9385 45.768 38.7915 45.9038 38.7915 45.9151V57.8614C38.7915 58.1102 39.2214 59.151 39.3798 59.3999C40.0246 60.4294 41.1559 60.7122 42.2871 60.8479C48.034 60.5086 54.3239 61.3118 60.0029 60.8479C62.684 60.633 63.4646 59.151 63.6004 56.6509Z" fill="#FDC300"/>
<path d="M72.198 91.6868V62.3189C72.198 62.3189 72.0622 62.1719 72.0509 62.1719H60.7042C60.7042 62.1719 60.5571 62.3076 60.5571 62.3189V98.7686C60.5571 100.285 61.926 102.162 63.5437 102.162H75.4447V92.1393H72.7636C72.6505 92.1393 72.2319 91.8452 72.2092 91.6868H72.198Z" fill="#FDC300"/>
<path d="M75.2864 41.7184H64.8108V60.7011C64.8108 60.7011 64.9465 60.8482 64.9578 60.8482H75.0828C75.5466 60.8482 76.2819 60.1921 76.4064 59.7396L76.4516 43.0759C76.4516 42.5555 75.8068 41.707 75.2864 41.707V41.7184ZM70.9649 55.7235C70.8518 56.1082 70.2748 56.029 70.2748 55.848V46.7299C70.3653 46.4471 70.9762 46.5715 70.9762 46.9335L70.9536 55.7235H70.9649Z" fill="#FDC300"/>
</svg>
