<svg width="153" height="112" viewBox="0 0 153 112" fill="none" xmlns="http://www.w3.org/2000/svg">
<path d="M6.95359 92.6917H0V73.9111H6.95359V76.8183H6.83968C6.9635 76.4667 7.26067 76.0209 7.73117 75.4811C8.20168 74.9412 8.86534 74.4509 9.72216 74.0151C10.574 73.5793 11.619 73.3613 12.8572 73.3613C13.7239 73.3613 14.5263 73.495 15.2593 73.7625C15.9923 74.0299 16.5272 74.2875 16.859 74.5302L14.1598 80.1812C13.9468 79.9237 13.5704 79.6513 13.0256 79.369C12.4858 79.0867 11.8073 78.948 11 78.948C10.0689 78.948 9.30118 79.1857 8.70191 79.6562C8.09768 80.1267 7.65688 80.7012 7.37458 81.3698C7.09227 82.0434 6.95359 82.6724 6.95359 83.2667V92.6917Z" fill="white"/>
<path d="M25.3231 82.6031C25.3231 84.0989 25.6054 85.2924 26.17 86.1839C26.7346 87.0754 27.6806 87.5212 29.0079 87.5212C30.3352 87.5212 31.3208 87.0754 31.8804 86.1839C32.4352 85.2924 32.7175 84.0989 32.7175 82.6031V73.9111H39.5819V83.3361C39.5819 85.3469 39.1659 87.1002 38.3338 88.586C37.5018 90.0718 36.3032 91.2208 34.7332 92.0281C33.1632 92.8354 31.2564 93.2415 29.0128 93.2415C26.7693 93.2415 24.8872 92.8354 23.3172 92.0281C21.7472 91.2208 20.5487 90.0718 19.7265 88.586C18.9044 87.1002 18.4933 85.3469 18.4933 83.3361V73.9111H25.333V82.6031H25.3231Z" fill="white"/>
<path d="M56.7283 73.3613C58.0408 73.3613 59.3185 73.6288 60.5716 74.1637C61.8197 74.6986 62.8498 75.5405 63.6621 76.6895C64.4743 77.8386 64.8755 79.3541 64.8755 81.2312V92.6917H57.8971V82.3752C57.8971 81.0331 57.5752 80.0227 56.9363 79.3442C56.2974 78.6657 55.4554 78.3239 54.4203 78.3239C53.7319 78.3239 53.088 78.5022 52.4888 78.8638C51.8845 79.2204 51.3992 79.7256 51.0228 80.3744C50.6513 81.0232 50.4631 81.7661 50.4631 82.6031V92.6917H43.5095V73.9111H50.4631V76.6796C50.6464 76.1745 51.0327 75.6693 51.6171 75.1592C52.2065 74.649 52.9444 74.2231 53.8359 73.8764C54.7274 73.5347 55.6932 73.3613 56.7283 73.3613Z" fill="white"/>
<path d="M81.8434 73.3613C83.1559 73.3613 84.4386 73.6288 85.6867 74.1637C86.9348 74.6986 87.9649 75.5405 88.7722 76.6895C89.5795 77.8386 89.9857 79.3541 89.9857 81.2312V92.6917H83.0122V82.3752C83.0122 81.0331 82.6903 80.0227 82.0514 79.3442C81.4125 78.6657 80.5706 78.3239 79.5354 78.3239C78.847 78.3239 78.2032 78.5022 77.6039 78.8638C76.9997 79.2204 76.5143 79.7256 76.1379 80.3744C75.7664 81.0232 75.5782 81.7661 75.5782 82.6031V92.6917H68.6246V73.9111H75.5782V76.6796C75.7615 76.1745 76.1478 75.6693 76.7322 75.1592C77.3216 74.649 78.0595 74.2231 78.951 73.8764C79.8425 73.5347 80.8083 73.3613 81.8434 73.3613Z" fill="white"/>
<path d="M97.8306 70.0476C96.7311 70.0476 95.8 69.6613 95.0423 68.8936C94.2796 68.1259 93.8982 67.2047 93.8982 66.135C93.8982 65.0652 94.2845 64.139 95.0522 63.3565C95.8199 62.569 96.746 62.1777 97.8306 62.1777C98.5488 62.1777 99.2025 62.356 99.7969 62.7176C100.391 63.0791 100.872 63.5546 101.238 64.1489C101.605 64.7432 101.788 65.4069 101.788 66.1399C101.788 67.2097 101.397 68.1259 100.619 68.8986C99.8414 69.6662 98.9103 70.0525 97.8306 70.0525V70.0476ZM94.2597 92.6914V73.9107H101.213V92.6914H94.2597Z" fill="white"/>
<path d="M118.944 73.3613C120.257 73.3613 121.534 73.6288 122.787 74.1637C124.035 74.6986 125.066 75.5405 125.873 76.6895C126.68 77.8386 127.086 79.3541 127.086 81.2312V92.6917H120.108V82.3752C120.108 81.0331 119.786 80.0227 119.147 79.3442C118.508 78.6657 117.666 78.3239 116.631 78.3239C115.943 78.3239 115.299 78.5022 114.7 78.8638C114.095 79.2204 113.61 79.7256 113.234 80.3744C112.862 81.0232 112.674 81.7661 112.674 82.6031V92.6917H105.72V73.9111H112.674V76.6796C112.857 76.1745 113.243 75.6693 113.828 75.1592C114.412 74.649 115.155 74.2231 116.047 73.8764C116.938 73.5347 117.904 73.3613 118.939 73.3613H118.944Z" fill="white"/>
<path d="M145.704 92.6917V89.6507C145.565 89.9578 145.218 90.3986 144.664 90.978C144.109 91.5575 143.371 92.0775 142.455 92.5431C141.538 93.0086 140.474 93.2414 139.25 93.2414C137.423 93.2414 135.818 92.7957 134.446 91.9042C133.074 91.0127 132.004 89.8142 131.242 88.3135C130.479 86.8128 130.098 85.1438 130.098 83.3162C130.098 81.4887 130.479 79.8196 131.242 78.3189C132.004 76.8182 133.069 75.6147 134.446 74.7183C135.818 73.8169 137.418 73.3662 139.25 73.3662C140.424 73.3662 141.454 73.5544 142.341 73.9259C143.227 74.2973 143.94 74.7431 144.49 75.2532C145.04 75.7633 145.421 76.2338 145.634 76.6598V73.916H152.543V92.6966H145.704V92.6917ZM140.994 102.731C139.681 102.731 138.384 102.617 137.096 102.389C135.808 102.161 134.605 101.77 133.495 101.22C132.381 100.67 131.445 99.9177 130.682 98.9568L134.753 94.7272C135.105 95.1383 135.536 95.5444 136.046 95.9406C136.556 96.3369 137.19 96.6637 137.943 96.9262C138.696 97.1838 139.617 97.3125 140.701 97.3125C141.707 97.3125 142.583 97.1392 143.331 96.7876C144.079 96.4359 144.664 95.9258 145.08 95.2572C145.501 94.5836 145.709 93.7714 145.709 92.8105V92.3549H152.548V93.2266C152.548 95.3017 152.033 97.0451 151.003 98.4665C149.973 99.883 148.591 100.953 146.853 101.671C145.114 102.389 143.163 102.746 140.999 102.746L140.994 102.731ZM136.922 83.3113C136.922 84.1631 137.121 84.9308 137.517 85.6093C137.913 86.2878 138.443 86.8178 139.107 87.1991C139.77 87.5805 140.503 87.7687 141.316 87.7687C142.128 87.7687 142.895 87.5805 143.534 87.1991C144.173 86.8178 144.683 86.2878 145.055 85.6093C145.426 84.9308 145.614 84.1631 145.614 83.3113C145.614 82.4594 145.426 81.6917 145.055 81.0132C144.683 80.3347 144.173 79.7998 143.534 79.4135C142.895 79.0222 142.153 78.8291 141.316 78.8291C140.479 78.8291 139.77 79.0222 139.107 79.4135C138.443 79.8047 137.913 80.3347 137.517 81.0132C137.121 81.6917 136.922 82.4594 136.922 83.3113Z" fill="white"/>
<path d="M44.0642 57.9483V51.3314C54.8463 51.3314 57.3969 50.2914 61.8197 46.146C62.3892 45.616 62.934 45.0415 63.459 44.4274C62.5675 44.2491 61.6513 43.9618 60.6954 43.5161C55.3366 41.015 52.7265 36.2108 54.0439 31.2779C54.7868 28.5094 56.6837 26.0826 59.3879 24.4432C62.1664 22.7593 65.554 22.0362 69.1942 22.3482C70.3878 22.4522 71.5567 22.6454 72.7057 22.893C73.6319 19.7679 74.6422 16.5932 75.9547 13.5076C78.3815 7.81698 81.888 3.69634 86.0978 1.59639C89.9461 -0.325261 94.2698 -0.51842 98.2716 1.05159C105.334 3.82015 110.723 12.0367 107.513 20.9912C105.24 27.3405 98.4994 32.9173 88.2869 32.9173C85.667 32.9173 82.8191 32.5508 79.7633 31.7336C78.9115 31.5058 78.0546 31.2532 77.2127 31.0006C76.9502 31.8624 76.6778 32.7241 76.3955 33.581C75.9101 35.047 75.3208 36.7011 74.5878 38.4495C79.4909 39.0784 85.7809 40.7624 90.1145 45.0861C93.4477 48.4143 95.1365 52.7281 95.1365 57.9136H88.5197C88.5197 54.5012 87.5143 51.8366 85.4391 49.7664C81.685 46.0172 75.187 45.0316 71.3487 44.784C69.9817 46.9681 68.3374 49.0928 66.3365 50.9649C60.3537 56.5665 55.9804 57.9384 44.0543 57.9384L44.0642 57.9483ZM67.5549 28.8957C63.5977 28.8957 61.0074 30.8669 60.4428 32.9916C59.799 35.3936 62.0822 36.8596 63.4986 37.5233C64.6922 38.083 65.8512 38.1275 67.4856 38.1127C68.4266 36.1712 69.2983 33.9821 70.1204 31.5058C70.3631 30.7678 70.6008 30.02 70.8336 29.2622C70.0907 29.1186 69.3577 29.0047 68.6296 28.9403C68.2582 28.9106 67.9016 28.8907 67.55 28.8907L67.5549 28.8957ZM79.0947 24.6562C79.907 24.8989 80.6944 25.1316 81.477 25.3397C92.4324 28.2568 99.4305 23.9727 101.298 18.7575C103.15 13.5918 99.9902 8.83229 95.8695 7.21275C94.2847 6.59367 91.8232 6.14297 89.0645 7.51982C86.2811 8.90658 83.8592 11.8782 82.0564 16.1028C80.8826 18.8516 79.9763 21.6945 79.0997 24.6562H79.0947Z" fill="#65C3CE"/>
<path d="M53.083 111.71L49.9926 104.117H51.0128L53.6229 110.793L56.2478 104.117H57.2086L54.1182 111.71H53.083Z" fill="white"/>
<path d="M59.3037 102.532V101.076H60.2943V102.532H59.3037ZM59.3037 111.71V104.117H60.2943V111.71H59.3037Z" fill="white"/>
<path d="M66.9951 104.994C66.3265 105.014 65.7421 105.198 65.2468 105.549C64.7515 105.901 64.3999 106.381 64.1968 106.99V111.71H63.2063V104.118H64.1374V105.94C64.4197 105.356 64.7961 104.9 65.2765 104.569C65.752 104.237 66.2621 104.073 66.8069 104.073C66.8862 104.073 66.9456 104.078 66.9951 104.088V104.99V104.994Z" fill="white"/>
<path d="M72.6957 111.348C72.6363 111.378 72.5521 111.417 72.4431 111.467C72.3341 111.517 72.2004 111.566 72.0568 111.611C71.9132 111.66 71.7448 111.705 71.5615 111.739C71.3783 111.779 71.1802 111.799 70.9771 111.799C70.7641 111.799 70.5611 111.769 70.363 111.71C70.1649 111.65 70.0014 111.561 69.8528 111.442C69.7092 111.323 69.5903 111.17 69.5012 110.982C69.412 110.798 69.3675 110.585 69.3675 110.343V104.91H68.3175V104.122H69.3675V101.557H70.358V104.122H72.1063V104.91H70.358V110.07C70.3778 110.353 70.4769 110.561 70.6552 110.689C70.8335 110.823 71.0415 110.888 71.2743 110.888C71.5566 110.888 71.8042 110.843 72.0172 110.749C72.2301 110.655 72.3688 110.59 72.4233 110.551L72.6858 111.353L72.6957 111.348Z" fill="white"/>
<path d="M77.0392 111.859C76.2121 111.859 75.5979 111.587 75.1968 111.037C74.7956 110.487 74.5925 109.67 74.5925 108.58V104.123H75.5831V108.407C75.5831 110.126 76.1725 110.987 77.3462 110.987C77.6385 110.987 77.9257 110.938 78.208 110.844C78.4903 110.745 78.7479 110.606 78.9856 110.423C79.2233 110.24 79.4363 110.022 79.6245 109.769C79.8127 109.517 79.9662 109.229 80.0851 108.907V104.128H81.0756V110.438C81.0756 110.71 81.1945 110.844 81.4273 110.844V111.72C81.3084 111.74 81.2143 111.75 81.145 111.75H80.9914C80.7587 111.74 80.5705 111.656 80.4219 111.503C80.2782 111.349 80.204 111.136 80.204 110.874V109.997C79.8721 110.591 79.4264 111.047 78.8568 111.374C78.2873 111.701 77.683 111.864 77.0441 111.864L77.0392 111.859Z" fill="white"/>
<path d="M85.9542 111.858C85.5927 111.858 85.2608 111.799 84.9587 111.675C84.6516 111.556 84.3842 111.388 84.1564 111.175C83.9286 110.962 83.7503 110.709 83.6264 110.422C83.5026 110.135 83.4382 109.827 83.4382 109.496C83.4382 109.164 83.5175 108.862 83.671 108.579C83.8245 108.297 84.0425 108.054 84.3248 107.851C84.6071 107.648 84.9439 107.49 85.3302 107.376C85.7165 107.262 86.1474 107.207 86.6129 107.207C86.9992 107.207 87.3954 107.242 87.7917 107.311C88.1879 107.381 88.5445 107.475 88.8565 107.604V106.92C88.8565 106.252 88.6683 105.717 88.2869 105.325C87.9105 104.934 87.3855 104.736 86.712 104.736C86.3257 104.736 85.9245 104.815 85.5184 104.969C85.1123 105.122 84.6962 105.345 84.2802 105.637L83.9285 104.984C84.9092 104.325 85.8601 103.993 86.7863 103.993C87.7124 103.993 88.485 104.261 89.0298 104.795C89.5746 105.33 89.847 106.068 89.847 107.009V110.432C89.847 110.704 89.9708 110.838 90.2135 110.838V111.714C90.0501 111.744 89.9213 111.759 89.8371 111.759C89.5845 111.759 89.3864 111.695 89.2478 111.571C89.1091 111.447 89.0298 111.269 89.0199 111.046L88.9902 110.447C88.6386 110.902 88.2027 111.254 87.6728 111.496C87.1428 111.739 86.5733 111.863 85.9592 111.863L85.9542 111.858ZM86.187 111.1C86.7021 111.1 87.1775 111.001 87.6084 110.808C88.0393 110.615 88.3662 110.357 88.594 110.035C88.6831 109.946 88.7475 109.852 88.7921 109.753C88.8367 109.649 88.8565 109.555 88.8565 109.471V108.233C88.5247 108.109 88.1829 108.01 87.8313 107.94C87.4747 107.871 87.1131 107.836 86.7466 107.836C86.0483 107.836 85.4787 107.98 85.0429 108.272C84.6071 108.565 84.3892 108.946 84.3892 109.421C84.3892 109.654 84.4337 109.872 84.5278 110.075C84.6219 110.278 84.7457 110.456 84.9042 110.605C85.0627 110.754 85.2559 110.872 85.4787 110.962C85.7016 111.051 85.9393 111.09 86.1919 111.09L86.187 111.1Z" fill="white"/>
<path d="M92.7592 101.076H93.7497V109.996C93.7497 110.278 93.829 110.501 93.9825 110.66C94.136 110.818 94.3539 110.902 94.6362 110.902C94.7452 110.902 94.869 110.887 95.0176 110.858C95.1612 110.828 95.2999 110.788 95.4237 110.739L95.5971 111.541C95.4138 111.62 95.186 111.68 94.9186 111.729C94.6511 111.779 94.4183 111.804 94.2252 111.804C93.7695 111.804 93.408 111.675 93.1455 111.417C92.883 111.16 92.7493 110.798 92.7493 110.333V101.081L92.7592 101.076Z" fill="white"/>
</svg>
