<svg width="38" height="24" viewBox="0 0 38 24" fill="none" xmlns="http://www.w3.org/2000/svg">
<path d="M11.0436 0.00246717C12.0679 -0.0187018 13.0905 0.0964335 14.0847 0.344868C15.0107 0.511178 15.771 0.853579 16.4533 1.27424C17.1296 1.69777 17.6603 2.31918 17.9739 3.05473C18.3268 3.9134 18.4993 4.83593 18.4807 5.76459C18.4807 6.93854 18.2273 7.96575 17.6327 8.72881C17.1259 9.49188 16.2681 10.1669 15.2641 10.6854C16.5586 11.0159 17.6947 11.7957 18.471 12.8865C19.1533 13.904 19.5724 15.1757 19.5724 16.604C19.5893 17.6603 19.3589 18.7057 18.8998 19.6563C18.4705 20.5092 17.8335 21.2394 17.0479 21.7792C16.2239 22.3272 15.3098 22.7247 14.3479 22.9531C13.3542 23.2129 12.3334 23.3541 11.3068 23.3738H0V0.00246717H11.0436ZM10.3613 9.49188C11.2873 9.49188 12.0476 9.23752 12.6421 8.80708C13.2367 8.37663 13.4901 7.63313 13.4901 6.68419C13.5046 6.21786 13.4181 5.75393 13.2367 5.32436C13.071 4.98196 12.8176 4.73739 12.4764 4.47325C12.1353 4.30694 11.7941 4.13085 11.375 4.05259C10.9559 3.97432 10.527 3.95476 10.0104 3.95476H5.13678V9.46253L10.3613 9.49188ZM10.605 19.5194C11.0868 19.5102 11.5666 19.4545 12.0378 19.353C12.4562 19.2698 12.8523 19.0987 13.2001 18.8508C13.5478 18.603 13.8393 18.284 14.0555 17.915C14.2212 17.4943 14.3966 16.9856 14.3966 16.3888C14.3966 15.2149 14.0555 14.354 13.3829 13.7474C12.7006 13.2387 11.7746 12.9844 10.6829 12.9844H5.12703V19.5096L10.605 19.5194ZM26.9121 19.4215C27.5944 20.1063 28.5983 20.4389 29.9532 20.4389C30.8141 20.4502 31.6601 20.2125 32.39 19.7541C32.9574 19.3869 33.3995 18.8544 33.6571 18.228H37.7997C37.1174 20.2629 36.1134 21.7009 34.7586 22.6303C33.394 23.4814 31.8052 23.9999 29.8557 23.9999C28.6124 24.0051 27.3792 23.7761 26.22 23.3249C25.1802 22.9352 24.2526 22.2933 23.52 21.4564C22.7314 20.6817 22.1513 19.7191 21.8338 18.6585C21.4108 17.4899 21.2091 16.2523 21.2392 15.0094C21.2392 13.7377 21.4049 12.5637 21.824 11.4485C22.2278 10.3823 22.8298 9.40298 23.598 8.5625C24.3699 7.77116 25.2866 7.13672 26.298 6.69397C27.4265 6.24126 28.6307 6.00883 29.846 6.00917C31.2788 6.00917 32.5459 6.26352 33.6474 6.86028C34.7488 7.45704 35.5968 8.13206 36.2791 9.14948C36.9689 10.1253 37.4835 11.2145 37.7997 12.3681C37.9654 13.542 38.0531 14.7453 37.9654 16.0856H25.7424C25.7114 17.295 26.1281 18.4731 26.9121 19.3922V19.4215ZM32.234 10.5191C31.6492 9.93211 30.7135 9.58971 29.6023 9.58971C28.842 9.58971 28.2377 9.75602 27.7503 10.0104C27.263 10.2647 26.9023 10.5973 26.5807 10.9397C26.2785 11.2673 26.0756 11.6745 25.9958 12.1137C25.9178 12.5246 25.8301 12.8768 25.8301 13.2192H33.4329C33.3503 12.2105 32.9216 11.2593 32.234 10.5191ZM24.8262 1.61665H34.2809V3.90584H24.8262V1.61665Z" fill="white"/>
</svg>
