<svg width="189" height="93" viewBox="0 0 189 93" fill="none" xmlns="http://www.w3.org/2000/svg">
<path d="M9.05397 5.15C8.94397 3.11 7.85397 1.41 4.96397 0H61.894C61.384 1.42 60.884 2.83 60.374 4.25C59.864 5.67 59.314 7.08 58.814 8.5H25.334C24.234 11.63 23.084 14.76 21.934 17.89C20.784 21.02 19.684 24.15 18.534 27.27C18.484 27.38 18.484 27.49 18.444 27.59C18.404 28.23 18.814 28.71 19.504 28.71H51.464C50.404 31.54 49.394 34.37 48.384 37.2H3.90397C0.823969 37.2 -0.766031 34.68 0.363969 31.6C1.53397 28.41 2.68397 25.22 3.85397 22.02C5.02397 18.83 6.15397 15.63 7.30397 12.43C8.36397 9.61 9.16397 7.21 9.05397 5.16V5.15Z" fill="#DE0147"/>
<path d="M69.954 5.04C69.844 3.05 68.734 1.38 65.854 0H120.294C123.394 0 125.004 2.52 123.894 5.61C123.014 8.05 122.094 10.5 121.214 12.93C120.334 15.37 119.454 17.81 118.574 20.25C117.424 23.34 113.984 25.86 110.914 25.86H107.204C108.314 27.75 109.464 29.65 110.574 31.54C111.684 33.43 112.874 35.32 114.024 37.21H96.714C94.684 33.91 92.714 30.61 90.744 27.29C88.774 23.99 86.804 20.67 84.844 17.37H101.534C102.304 17.37 103.204 16.72 103.484 15.93C104.194 13.93 104.924 11.94 105.664 9.95C105.964 9.15 105.554 8.51 104.784 8.51H86.254C84.494 13.3 82.744 18.09 81.004 22.87C79.264 27.66 77.524 32.44 75.754 37.22H59.094C60.624 33.04 62.174 28.86 63.684 24.67C65.194 20.49 66.714 16.3 68.244 12.12C69.244 9.38 70.044 7.05 69.924 5.06L69.954 5.04Z" fill="#DE0147"/>
<path d="M132.124 5.16001C132.024 3.12001 130.974 1.42001 128.064 0.0100098H184.764C187.864 0.0100098 189.494 2.53001 188.364 5.62001C186.774 9.95001 185.244 14.29 183.654 18.62C182.064 22.96 180.474 27.28 178.904 31.61C177.794 34.69 174.314 37.22 171.244 37.22H126.904C123.804 37.22 122.214 34.69 123.344 31.61C124.514 28.41 125.664 25.21 126.824 22.03C127.994 18.83 129.164 15.64 130.304 12.45C131.334 9.63001 132.204 7.23001 132.104 5.18001L132.124 5.16001ZM142.494 28.7H161.864C162.664 28.7 163.534 28.04 163.814 27.26C164.864 24.37 165.934 21.49 166.994 18.6C168.044 15.72 169.084 12.82 170.134 9.93001C170.424 9.13001 170.024 8.49001 169.214 8.49001H148.384C147.234 11.62 146.104 14.76 144.974 17.88C143.844 21.01 142.664 24.13 141.524 27.26C141.244 28.05 141.674 28.7 142.484 28.7H142.494Z" fill="#DE0147"/>
<path d="M9.68397 67.42C10.714 64.6 11.584 62.2 11.484 60.15C11.394 58.11 10.294 56.41 7.38397 55H65.124C64.624 56.42 64.084 57.83 63.594 59.25C63.094 60.67 62.564 62.08 62.064 63.5H27.764C27.194 64.97 26.654 66.45 26.114 67.92C25.844 68.67 26.234 69.3 26.954 69.36H54.334C57.434 69.36 58.984 71.87 57.854 74.97C57.144 76.91 56.454 78.86 55.744 80.79C55.034 82.73 54.314 84.66 53.604 86.61C52.474 89.69 49.084 92.21 45.984 92.21H0.653969C1.19397 90.79 1.68397 89.38 2.18397 87.96C2.72397 86.54 3.21397 85.13 3.75397 83.71H36.604C37.404 83.71 38.264 83.07 38.554 82.27C38.914 81.29 39.274 80.29 39.624 79.3C39.884 78.55 39.544 77.92 38.824 77.86H11.484C8.38397 77.86 6.81397 75.34 7.92397 72.26C8.50397 70.66 9.11397 69.05 9.68397 67.44V67.42Z" fill="#DE0147"/>
<path d="M72.234 60.15C72.144 58.11 71.034 56.41 68.094 55H124.974C124.464 56.42 123.964 57.83 123.454 59.25C122.954 60.67 122.394 62.08 121.894 63.5H88.504C87.814 65.45 87.084 67.41 86.384 69.36H116.874C116.374 70.78 115.864 72.19 115.314 73.61C114.804 75.03 114.304 76.44 113.794 77.86H83.264C82.754 79.33 82.204 80.81 81.654 82.28C81.604 82.39 81.604 82.5 81.604 82.6C81.464 83.24 81.884 83.72 82.574 83.72H114.584C113.524 86.55 112.514 89.38 111.504 92.21H66.994C63.914 92.21 62.344 89.69 63.454 86.61C64.604 83.42 65.794 80.22 66.954 77.03C68.104 73.84 69.294 70.64 70.444 67.44C71.454 64.62 72.334 62.21 72.234 60.17V60.15Z" fill="#DE0147"/>
<path d="M133.004 60.04C132.894 58.05 131.784 56.38 128.904 55H183.344C186.444 55 188.054 57.52 186.944 60.61C186.064 63.05 185.144 65.5 184.264 67.93C183.384 70.37 182.504 72.81 181.624 75.25C180.474 78.34 177.034 80.86 173.964 80.86H170.254C171.364 82.75 172.514 84.65 173.624 86.54C174.734 88.43 175.924 90.32 177.074 92.21H159.764C157.734 88.91 155.764 85.61 153.794 82.29C151.824 78.99 149.854 75.67 147.894 72.37H164.584C165.354 72.37 166.254 71.72 166.534 70.93C167.244 68.93 167.984 66.94 168.714 64.95C169.004 64.15 168.594 63.51 167.834 63.51H149.304C147.544 68.3 145.794 73.09 144.054 77.87C142.314 82.66 140.574 87.44 138.804 92.22H122.144C123.674 88.04 125.224 83.86 126.734 79.67C128.244 75.49 129.754 71.3 131.294 67.12C132.294 64.38 133.094 62.05 132.974 60.06L133.004 60.04Z" fill="#DE0147"/>
</svg>
