<svg width="26" height="26" viewBox="0 0 26 26" fill="none" xmlns="http://www.w3.org/2000/svg">
<path d="M7.61596 0.0910179C6.23275 0.156234 5.28819 0.377017 4.46236 0.701366C3.60782 1.03449 2.88339 1.48136 2.16265 2.2047C1.44201 2.92804 0.99806 3.6529 0.667425 4.50895C0.347407 5.33639 0.130522 6.28182 0.0694221 7.66577C0.00832176 9.04973 -0.00521997 9.49465 0.00160506 13.025C0.00832176 16.5551 0.0239218 16.9977 0.0909805 18.3846C0.157064 19.7674 0.376982 20.7118 0.701442 21.5378C1.03511 22.3925 1.48145 23.1166 2.20512 23.8375C2.92868 24.5585 3.653 25.0013 4.511 25.3325C5.33781 25.6521 6.28345 25.8699 7.6672 25.9305C9.05095 25.9912 9.49631 26.0053 13.0256 25.9984C16.5549 25.9917 16.9993 25.976 18.3858 25.9102C19.7724 25.8445 20.7117 25.6229 21.5381 25.3C22.3927 24.9657 23.1173 24.52 23.8378 23.7962C24.5582 23.0724 25.0018 22.347 25.3322 21.4905C25.6526 20.6637 25.8702 19.7181 25.9302 18.3354C25.9909 16.9477 26.0052 16.5048 25.9985 12.9751C25.9917 9.44525 25.9757 9.00271 25.91 7.61637C25.8442 6.23003 25.624 5.28862 25.2997 4.46204C24.9656 3.6074 24.5197 2.88384 23.7965 2.16235C23.0731 1.44085 22.3471 0.997549 21.491 0.667891C20.6636 0.347767 19.7186 0.129693 18.3348 0.069893C16.9511 0.0100932 16.5057 -0.00539846 12.9751 0.00153485C9.44453 0.0082515 9.00252 0.0234181 7.61596 0.0910179ZM7.76784 23.5918C6.50034 23.5367 5.81209 23.3261 5.35341 23.1498C4.74609 22.9158 4.3134 22.633 3.85634 22.1802C3.39917 21.7276 3.11848 21.2934 2.88134 20.6874C2.70323 20.2287 2.48873 19.5412 2.42948 18.2737C2.36502 16.9039 2.35148 16.4925 2.34389 13.0218C2.33631 9.55109 2.34963 9.14018 2.40965 7.76977C2.46382 6.50336 2.67572 5.81436 2.85165 5.35589C3.08565 4.74782 3.36754 4.3159 3.82124 3.85917C4.27494 3.40233 4.70784 3.12098 5.31441 2.88384C5.77266 2.70499 6.46004 2.49233 7.727 2.43199C9.09797 2.36699 9.50877 2.35399 12.979 2.3464C16.4493 2.33882 16.8612 2.35182 18.2327 2.41227C19.4991 2.4673 20.1884 2.67714 20.6464 2.85427C21.2539 3.08827 21.6864 3.36928 22.1431 3.82385C22.5999 4.2782 22.8815 4.70958 23.1186 5.31744C23.2977 5.77428 23.5105 6.46143 23.5703 7.72925C23.6355 9.10021 23.6503 9.51133 23.6565 12.9812C23.6628 16.4511 23.6506 16.8632 23.5904 18.2332C23.5352 19.5007 23.325 20.1892 23.1484 20.6484C22.9144 21.2555 22.6324 21.6884 22.1784 22.1449C21.7245 22.6015 21.2921 22.8828 20.6852 23.1199C20.2276 23.2986 19.5394 23.5118 18.2735 23.5721C16.9024 23.6366 16.4916 23.6501 13.0201 23.6577C9.54853 23.6653 9.13881 23.6512 7.76784 23.5918ZM18.3658 6.05193C18.3663 6.3605 18.4583 6.66198 18.6302 6.91825C18.8021 7.17452 19.0461 7.37406 19.3314 7.49163C19.6167 7.60921 19.9304 7.63954 20.233 7.57879C20.5355 7.51804 20.8132 7.36894 21.031 7.15034C21.2488 6.93175 21.3968 6.65347 21.4564 6.35072C21.5161 6.04797 21.4845 5.73434 21.3659 5.4495C21.2473 5.16465 21.0468 4.92139 20.7899 4.75048C20.533 4.57958 20.2311 4.4887 19.9226 4.48934C19.5089 4.4902 19.1126 4.65529 18.8207 4.94832C18.5287 5.24134 18.3651 5.63831 18.3658 6.05193ZM6.32505 13.013C6.33231 16.6998 9.32655 19.6816 13.0125 19.6747C16.6987 19.6677 19.6826 16.6738 19.6757 12.987C19.6686 9.30019 16.6738 6.31746 12.9872 6.32472C9.30055 6.33198 6.31812 9.32663 6.32505 13.013ZM8.66669 13.0083C8.665 12.1513 8.91749 11.313 9.39223 10.5994C9.86697 9.88589 10.5426 9.32914 11.3338 8.9996C12.125 8.67005 12.9961 8.58251 13.837 8.74805C14.6779 8.91358 15.4509 9.32475 16.0581 9.92957C16.6653 10.5344 17.0796 11.3057 17.2484 12.1459C17.4173 12.9862 17.3332 13.8576 17.0068 14.6501C16.6804 15.4425 16.1264 16.1204 15.4147 16.598C14.7031 17.0756 13.8658 17.3314 13.0087 17.3331C12.4396 17.3343 11.8759 17.2234 11.3497 17.0067C10.8234 16.79 10.3451 16.4717 9.94186 16.0701C9.53865 15.6685 9.21851 15.1914 8.99971 14.6661C8.78092 14.1407 8.66776 13.5774 8.66669 13.0083Z" fill="white"/>
</svg>
