<svg width="240" height="225" viewBox="0 0 240 225" fill="none" xmlns="http://www.w3.org/2000/svg">
<g clip-path="url(#clip0_82_97)">
<path d="M184.614 58.9729L171.538 94.857H63.7275L57.1833 112.787L44.107 148.695L37.5629 166.637L26.1286 148.695L14.6943 130.741L21.2385 112.787L27.7706 94.857L40.847 58.9729H184.614Z" fill="#878787"/>
<path d="M209.113 41.0189H29.4127L6.56812 5.1228H186.256L197.691 23.0768L209.113 41.0189Z" fill="#878787"/>
<path d="M231.982 76.9269L225.461 94.857L218.905 112.787L205.829 148.695H98.0064L91.4503 166.637L84.9061 184.591L78.386 202.521L71.8298 220.475L60.4075 202.521L48.9972 184.591H48.9733V184.567L55.5174 166.637L62.0616 148.695L75.1379 112.787H182.972L189.517 94.857L202.593 58.9728L209.113 41.0308L220.547 58.9728L231.982 76.9269Z" fill="#878787"/>
<path d="M117.986 58.9729H0.599243H239.401H122.014" stroke="#B2B2B2" stroke-miterlimit="10"/>
<path d="M121.642 94.8572H239.533H0.731079H118.634" stroke="#B2B2B2" stroke-miterlimit="10"/>
<path d="M117.016 5.1228H0.131836H238.933H122.05" stroke="#B2B2B2" stroke-miterlimit="10"/>
<path d="M122.697 41.0188H239.58H0.779053H117.663" stroke="#B2B2B2" stroke-miterlimit="10"/>
<path d="M118.945 112.787H1.05469H239.856H121.966" stroke="#B2B2B2" stroke-miterlimit="10"/>
<path d="M119.113 184.591H239.401H0.599243H119.101" stroke="#B2B2B2" stroke-miterlimit="10"/>
<path d="M122.601 148.695H239.401H0.599243H119.592" stroke="#B2B2B2" stroke-miterlimit="10"/>
<path d="M3.34399 0.598389L147.591 224.27" stroke="#B2B2B2" stroke-miterlimit="10"/>
<path d="M0.599243 105.809L74.2509 224.27" stroke="#B2B2B2" stroke-miterlimit="10"/>
<path d="M183.476 0.861816L239.401 90.7397" stroke="#B2B2B2" stroke-miterlimit="10"/>
<path d="M16.5521 224.27L98.0903 0.598389" stroke="#B2B2B2" stroke-miterlimit="10"/>
<path d="M34.6984 224.27L116.237 0.598389" stroke="#B2B2B2" stroke-miterlimit="10"/>
<path d="M124.207 224.27L205.757 0.598389" stroke="#B2B2B2" stroke-miterlimit="10"/>
<path d="M71.8298 220.476L152.002 0.598389" stroke="#B2B2B2" stroke-miterlimit="10"/>
<path d="M0.599243 169.438L62.1094 0.598389" stroke="#B2B2B2" stroke-miterlimit="10"/>
<path d="M178.31 224.27L239.401 55.8848" stroke="#B2B2B2" stroke-miterlimit="10"/>
<path d="M239.401 0.598389H0.599243V224.27H239.401V0.598389Z" stroke="#B2B2B2" stroke-miterlimit="10"/>
<path d="M6.56816 9.64722C9.07032 9.64722 11.0987 7.62157 11.0987 5.12281C11.0987 2.62404 9.07032 0.598389 6.56816 0.598389C4.066 0.598389 2.0376 2.62404 2.0376 5.12281C2.0376 7.62157 4.066 9.64722 6.56816 9.64722Z" fill="#9D9D9C"/>
<path d="M187.107 9.64722C189.61 9.64722 191.638 7.62157 191.638 5.12281C191.638 2.62404 189.61 0.598389 187.107 0.598389C184.605 0.598389 182.577 2.62404 182.577 5.12281C182.577 7.62157 184.605 9.64722 187.107 9.64722Z" fill="#9D9D9C"/>
<path d="M184.615 63.4973C187.117 63.4973 189.145 61.4717 189.145 58.9729C189.145 56.4741 187.117 54.4485 184.615 54.4485C182.112 54.4485 180.084 56.4741 180.084 58.9729C180.084 61.4717 182.112 63.4973 184.615 63.4973Z" fill="#9D9D9C"/>
<path d="M182.972 117.312C185.475 117.312 187.503 115.286 187.503 112.787C187.503 110.288 185.475 108.263 182.972 108.263C180.47 108.263 178.442 110.288 178.442 112.787C178.442 115.286 180.47 117.312 182.972 117.312Z" fill="#9D9D9C"/>
<path d="M232.641 82.0618C235.143 82.0618 237.171 80.0361 237.171 77.5374C237.171 75.0386 235.143 73.0129 232.641 73.0129C230.139 73.0129 228.11 75.0386 228.11 77.5374C228.11 80.0361 230.139 82.0618 232.641 82.0618Z" fill="#9D9D9C"/>
<path d="M205.757 153.22C208.259 153.22 210.288 151.194 210.288 148.695C210.288 146.197 208.259 144.171 205.757 144.171C203.255 144.171 201.227 146.197 201.227 148.695C201.227 151.194 203.255 153.22 205.757 153.22Z" fill="#9D9D9C"/>
<path d="M170.771 99.4653C173.273 99.4653 175.302 97.4397 175.302 94.9409C175.302 92.4422 173.273 90.4165 170.771 90.4165C168.269 90.4165 166.241 92.4422 166.241 94.9409C166.241 97.4397 168.269 99.4653 170.771 99.4653Z" fill="#9D9D9C"/>
<path d="M209.113 45.5432C211.615 45.5432 213.644 43.5176 213.644 41.0188C213.644 38.52 211.615 36.4944 209.113 36.4944C206.611 36.4944 204.583 38.52 204.583 41.0188C204.583 43.5176 206.611 45.5432 209.113 45.5432Z" fill="#9D9D9C"/>
<path d="M28.7056 45.5432C31.2078 45.5432 33.2362 43.5176 33.2362 41.0188C33.2362 38.52 31.2078 36.4944 28.7056 36.4944C26.2035 36.4944 24.175 38.52 24.175 41.0188C24.175 43.5176 26.2035 45.5432 28.7056 45.5432Z" fill="#9D9D9C"/>
<path d="M41.2186 63.4973C43.7207 63.4973 45.7491 61.4717 45.7491 58.9729C45.7491 56.4741 43.7207 54.4485 41.2186 54.4485C38.7164 54.4485 36.688 56.4741 36.688 58.9729C36.688 61.4717 38.7164 63.4973 41.2186 63.4973Z" fill="#9D9D9C"/>
<path d="M63.8953 99.4653C66.3975 99.4653 68.4259 97.4397 68.4259 94.9409C68.4259 92.4422 66.3975 90.4165 63.8953 90.4165C61.3932 90.4165 59.3647 92.4422 59.3647 94.9409C59.3647 97.4397 61.3932 99.4653 63.8953 99.4653Z" fill="#9D9D9C"/>
<path d="M75.4734 117.395C77.9756 117.395 80.004 115.37 80.004 112.871C80.004 110.372 77.9756 108.346 75.4734 108.346C72.9713 108.346 70.9429 110.372 70.9429 112.871C70.9429 115.37 72.9713 117.395 75.4734 117.395Z" fill="#9D9D9C"/>
<path d="M98.5458 153.687C101.048 153.687 103.076 151.661 103.076 149.162C103.076 146.663 101.048 144.638 98.5458 144.638C96.0437 144.638 94.0153 146.663 94.0153 149.162C94.0153 151.661 96.0437 153.687 98.5458 153.687Z" fill="#9D9D9C"/>
<path d="M72.0936 225C74.5957 225 76.6241 222.974 76.6241 220.476C76.6241 217.977 74.5957 215.951 72.0936 215.951C69.5914 215.951 67.563 217.977 67.563 220.476C67.563 222.974 69.5914 225 72.0936 225Z" fill="#9D9D9C"/>
<path d="M49.225 189.116C51.7272 189.116 53.7556 187.09 53.7556 184.591C53.7556 182.093 51.7272 180.067 49.225 180.067C46.7229 180.067 44.6945 182.093 44.6945 184.591C44.6945 187.09 46.7229 189.116 49.225 189.116Z" fill="#9D9D9C"/>
<path d="M14.6944 135.278C17.1965 135.278 19.2249 133.252 19.2249 130.753C19.2249 128.254 17.1965 126.229 14.6944 126.229C12.1922 126.229 10.1638 128.254 10.1638 130.753C10.1638 133.252 12.1922 135.278 14.6944 135.278Z" fill="#9D9D9C"/>
</g>
<defs>
<clipPath id="clip0_82_97">
<rect width="240" height="225" fill="white"/>
</clipPath>
</defs>
</svg>
