<svg width="415" height="80" viewBox="0 0 415 80" fill="none" xmlns="http://www.w3.org/2000/svg">
<path d="M65.3348 19.7869L60.5324 32.9692H20.9764L18.5707 39.5649L13.7771 52.7561L11.3714 59.3429L7.1815 52.7561L2.98267 46.1605L5.38834 39.5649L7.78513 32.9692L12.5787 19.7869H65.3348Z" fill="#DE0147"/>
<path d="M74.3184 13.1912H8.38878L0 0H65.9296L70.1284 6.59562L74.3184 13.1912Z" fill="#DE0147"/>
<path d="M82.7161 26.3823L80.3193 32.9691L77.9136 39.5647L73.12 52.7559H33.5552L31.1495 59.3427L28.7438 65.9383L26.3559 72.5339L23.9502 79.1295L19.7514 72.5339L15.5703 65.9383H15.5615V65.9294L17.9671 59.3427L20.3639 52.7559L25.1664 39.5647H64.7312L67.128 32.9691L71.9305 19.7867L74.3184 13.2L78.5172 19.7867L82.7161 26.3823Z" fill="#DE0147"/>
<path d="M115.162 15.8989C115.037 14.0791 114.008 12.57 111.424 11.3005H161.047C163.843 11.3005 165.326 13.5908 164.296 16.4137C163.479 18.633 162.707 20.87 161.89 23.0892C161.065 25.3173 160.248 27.5366 159.449 29.7559C158.437 32.5699 155.295 34.869 152.507 34.869H124.243C123.612 36.5912 122.982 38.3222 122.361 40.0443C121.731 41.7665 121.109 43.4886 120.479 45.2107H105.335C106.728 41.3936 108.095 37.5854 109.489 33.7683C110.883 29.9511 112.277 26.1429 113.644 22.3258C114.549 19.8314 115.304 17.7009 115.179 15.89L115.162 15.8989ZM146.879 19.0502H130.022C129.01 21.7488 128.033 24.4385 127.057 27.1372H143.914C144.642 27.1372 145.441 26.5424 145.699 25.8233C146.347 24.0036 147.012 22.1838 147.687 20.3728C147.953 19.6449 147.616 19.0591 146.888 19.0591L146.879 19.0502Z" fill="white"/>
<path d="M172.622 15.8988C172.489 14.079 171.468 12.5699 168.859 11.3093H190.261C188.228 16.964 186.151 22.6098 184.118 28.2644C182.085 33.9191 180.008 39.5649 177.975 45.2195C172.906 45.2195 167.829 45.2195 162.804 45.2195C164.189 41.4113 165.574 37.5942 166.95 33.7859C168.335 29.9777 169.72 26.1606 171.096 22.3434C172.019 19.849 172.764 17.7185 172.631 15.8988H172.622Z" fill="white"/>
<path d="M196.724 16.0053C196.644 14.1411 195.632 12.5965 192.951 11.3093H244.801C244.34 12.6054 243.878 13.8926 243.417 15.1797C242.955 16.4669 242.458 17.7629 241.996 19.0501H211.566C210.936 20.8344 210.27 22.6098 209.64 24.3852H237.434C236.972 25.6723 236.51 26.9684 236.013 28.2555C235.552 29.5516 235.09 30.8388 234.628 32.1259H206.799C206.337 33.4664 205.831 34.8157 205.334 36.1472C205.29 36.2449 205.29 36.3514 205.29 36.4402C205.166 37.026 205.538 37.461 206.169 37.461H235.339C234.371 40.0442 233.448 42.6274 232.533 45.2018H191.957C189.151 45.2018 187.722 42.9026 188.725 40.0975C189.773 37.1858 190.865 34.2742 191.912 31.3625C192.96 28.4508 194.052 25.5392 195.099 22.6275C196.022 20.0532 196.821 17.8606 196.732 16.0053H196.724Z" fill="white"/>
<path d="M246.284 19.0501C247.225 16.4669 248.13 13.8925 249.08 11.3093H298.987C298.534 12.5965 298.046 13.8926 297.593 15.1797C297.14 16.4669 296.652 17.7629 296.199 19.0501H278.818C277.211 23.4176 275.622 27.7851 274.033 32.1348C272.444 36.5023 270.856 40.852 269.249 45.2106H254.069C255.676 40.852 257.256 36.4934 258.854 32.1348C260.443 27.7851 262.032 23.4087 263.638 19.0501H246.293H246.284Z" fill="white"/>
<path d="M306.257 15.8989C306.151 14.0791 305.139 12.57 302.52 11.3005H352.142C354.965 11.3005 356.439 13.5997 355.427 16.4137C354.628 18.6418 353.785 20.87 352.986 23.0892C352.187 25.3085 351.379 27.5366 350.58 29.7559C349.532 32.5699 346.39 34.869 343.603 34.869H340.22C341.232 36.5912 342.28 38.3222 343.292 40.0443C344.304 41.7665 345.387 43.4886 346.434 45.2107H330.66C328.814 42.2014 327.02 39.1921 325.218 36.174C323.425 33.1735 321.623 30.1465 319.848 27.1283H335.063C335.764 27.1283 336.59 26.5335 336.847 25.8145C337.495 23.9947 338.161 22.1749 338.836 20.364C339.102 19.6361 338.729 19.0502 338.037 19.0502H321.144C319.537 23.4177 317.948 27.7852 316.359 32.1349C314.77 36.5024 313.181 40.861 311.574 45.2196H296.395C297.788 41.4025 299.2 37.6031 300.585 33.7771C301.961 29.9689 303.345 26.1518 304.739 22.3347C305.644 19.8402 306.381 17.7098 306.275 15.8989H306.257Z" fill="white"/>
<path d="M362.928 16.0053C362.839 14.1411 361.88 12.5965 359.226 11.3093H410.908C413.74 11.3093 415.222 13.5996 414.193 16.4225C412.746 20.3728 411.343 24.3319 409.896 28.2733C408.449 32.2236 406.993 36.165 405.573 40.1153C404.561 42.9204 401.383 45.2284 398.596 45.2284H358.188C355.365 45.2284 353.918 42.9204 354.939 40.1153C356.004 37.1947 357.051 34.2831 358.117 31.3803C359.182 28.4597 360.247 25.5569 361.295 22.6453C362.235 20.0709 363.026 17.8872 362.937 16.023L362.928 16.0053ZM372.382 37.4699H390.038C390.775 37.4699 391.556 36.8751 391.823 36.1561C392.781 33.5196 393.758 30.9009 394.716 28.2644C395.675 25.6368 396.625 22.9915 397.575 20.3639C397.841 19.636 397.468 19.0501 396.74 19.0501H377.752C376.705 21.9085 375.675 24.7669 374.646 27.6075C373.616 30.4659 372.533 33.3066 371.503 36.165C371.246 36.884 371.645 37.4788 372.373 37.4788L372.382 37.4699Z" fill="white"/>
<path d="M108.575 58.0378C108.53 57.4342 108.202 56.9371 107.341 56.511H123.834C124.766 56.511 125.264 57.2744 124.917 58.2065C124.598 59.0853 124.269 59.9641 123.959 60.8429C123.772 61.3578 123.373 61.8283 122.885 62.139C123.133 62.4497 123.213 62.9202 123.027 63.435C122.716 64.3139 122.387 65.1927 122.068 66.0715C121.722 67.0036 120.692 67.767 119.76 67.767H105.326C105.787 66.5065 106.24 65.2371 106.702 63.9766C107.163 62.716 107.616 61.4466 108.078 60.1772C108.371 59.3516 108.619 58.6415 108.575 58.0378ZM116.919 65.2016C117.159 65.2016 117.416 65.0063 117.505 64.7666C117.612 64.4648 117.727 64.1718 117.842 63.87C117.922 63.6303 117.798 63.435 117.567 63.435H111.921C111.708 64.0298 111.486 64.6157 111.282 65.2105H116.928L116.919 65.2016ZM119.076 60.4169C119.192 60.115 119.298 59.8221 119.414 59.5203C119.502 59.2806 119.369 59.0853 119.138 59.0853H113.51C113.306 59.6801 113.075 60.266 112.871 60.8607H118.508C118.748 60.8607 119.005 60.6654 119.094 60.4258L119.076 60.4169Z" fill="white"/>
<path d="M127.669 58.0378C127.625 57.4342 127.287 56.9371 126.418 56.511H133.519C132.845 58.384 132.152 60.2571 131.477 62.139C130.803 64.0121 130.11 65.8851 129.436 67.767C127.758 67.767 126.071 67.767 124.402 67.767C124.864 66.5065 125.317 65.2371 125.778 63.9766C126.24 62.716 126.693 61.4466 127.154 60.1772C127.456 59.3516 127.705 58.6415 127.66 58.0378H127.669Z" fill="white"/>
<path d="M138.473 65.6543C138.215 66.3556 137.967 67.0658 137.709 67.767H132.676C133.138 66.5065 133.59 65.2371 134.052 63.9766C134.513 62.716 134.966 61.4466 135.428 60.1772C135.73 59.3516 135.978 58.6415 135.934 58.0378C135.889 57.4342 135.552 56.9371 134.682 56.511H141.784L141.02 58.6237C140.763 59.325 140.514 60.0351 140.257 60.7364C141.313 60.0351 142.396 59.325 143.453 58.6237C144.509 57.9224 145.583 57.2123 146.648 56.511H152.401C150.989 57.4519 149.542 58.384 148.131 59.325C146.719 60.2659 145.29 61.198 143.87 62.139C144.598 63.08 145.352 64.012 146.071 64.953C146.79 65.894 147.563 66.8261 148.317 67.767C146.391 67.767 144.482 67.767 142.565 67.767C142.006 67.0658 141.429 66.3556 140.887 65.6543C140.337 64.953 139.769 64.2429 139.227 63.5416L138.464 65.6543H138.473Z" fill="white"/>
<path d="M154.549 58.0733C154.522 57.4519 154.185 56.946 153.297 56.511H170.501C170.35 56.9371 170.199 57.3632 170.039 57.7981C169.888 58.2242 169.72 58.6503 169.569 59.0853H159.476C159.272 59.6801 159.041 60.266 158.837 60.8607H168.06C167.909 61.2868 167.758 61.7129 167.589 62.1479C167.438 62.574 167.287 63.0001 167.128 63.435H157.896C157.745 63.8789 157.576 64.3227 157.407 64.7666C157.39 64.8021 157.39 64.8288 157.39 64.8643C157.345 65.0596 157.469 65.2016 157.683 65.2016H167.358C167.039 66.0538 166.728 66.9148 166.426 67.767H152.969C152.037 67.767 151.566 67.0036 151.895 66.0715C152.241 65.1039 152.605 64.1363 152.951 63.1776C153.297 62.21 153.661 61.2424 154.007 60.2748C154.309 59.4226 154.576 58.6947 154.549 58.0733Z" fill="white"/>
<path d="M172.383 60.2748C172.694 59.4226 172.96 58.6947 172.924 58.0733C172.898 57.4519 172.569 56.946 171.682 56.511H189.143C188.992 56.9371 188.832 57.3632 188.681 57.7981C188.53 58.2242 188.37 58.6503 188.219 59.0853H177.842C177.665 59.5292 177.505 59.973 177.345 60.4258C177.265 60.6566 177.381 60.843 177.602 60.8607H185.885C186.826 60.8607 187.296 61.6241 186.95 62.5562C186.737 63.1421 186.524 63.728 186.311 64.3139C186.098 64.8997 185.876 65.4856 185.663 66.0715C185.325 67.0036 184.296 67.767 183.355 67.767H169.649C169.808 67.3409 169.959 66.9148 170.11 66.4799C170.27 66.0538 170.421 65.6277 170.59 65.1927H180.523C180.763 65.1927 181.029 64.9974 181.109 64.7577C181.215 64.4648 181.331 64.1541 181.437 63.8612C181.517 63.6304 181.411 63.4439 181.198 63.4262H172.933C171.992 63.4262 171.522 62.6627 171.859 61.7306C172.037 61.2424 172.214 60.7631 172.392 60.2748H172.383Z" fill="white"/>
</svg>
