<svg width="28" height="28" viewBox="0 0 28 28" fill="none" xmlns="http://www.w3.org/2000/svg">
<path fill-rule="evenodd" clip-rule="evenodd" d="M13.9117 0C6.50238 0 0.496142 6.006 0.496142 13.4153C0.496142 15.9496 1.19952 18.3198 2.42111 20.342L0 27.5393L7.42738 25.1611C9.34923 26.2241 11.5595 26.8298 13.9117 26.8298C21.3204 26.8298 27.3267 20.8241 27.3267 13.4153C27.3267 6.006 21.3204 0 13.9117 0ZM13.9117 24.6934C11.6205 24.6934 9.48739 24.0062 7.70634 22.8282L3.37202 24.2162L4.78069 20.0276C3.43054 18.1683 2.63278 15.8835 2.63278 13.415C2.63278 7.19592 7.69242 2.1364 13.9117 2.1364C20.1305 2.1364 25.1903 7.19592 25.1903 13.415C25.1903 19.6339 20.1305 24.6934 13.9117 24.6934Z" fill="white"/>
<path fill-rule="evenodd" clip-rule="evenodd" d="M11.0601 7.59401C10.865 7.04651 10.7155 7.02796 10.4141 7.01128C10.3107 7.00552 10.1986 7 10.0759 7C9.68762 7 9.28498 7.13314 9.04236 7.42212C8.74709 7.77379 8.00879 8.59747 8.00879 10.2887C8.00879 11.9802 9.06692 13.6147 9.21434 13.8441C9.36219 14.0733 11.278 17.5951 14.2588 19.0329C16.5854 20.1549 17.2762 20.055 17.807 19.9198C18.5793 19.7235 19.5491 19.0613 19.7952 18.2589C20.0412 17.456 20.0412 16.7679 19.9675 16.625C19.8936 16.4814 19.6967 16.3958 19.4015 16.2234C19.1062 16.0515 17.6543 15.2199 17.3836 15.1055C17.1129 14.9909 16.8627 15.0259 16.6545 15.3611C16.3672 15.8241 16.0909 16.2999 15.862 16.582C15.6824 16.8034 15.3934 16.8342 15.1448 16.7112C14.818 16.5491 13.8981 16.1759 12.77 15.005C11.8924 14.0941 11.2997 12.9688 11.1274 12.6245C10.9551 12.2807 11.1122 12.0755 11.245 11.8885C11.3964 11.6749 11.5361 11.5216 11.6837 11.3211C11.8313 11.1203 11.9138 11.0134 12.0122 10.7837C12.1107 10.5545 12.0444 10.3179 11.9706 10.1458C11.8965 9.97354 11.3054 8.28254 11.0601 7.59401Z" fill="white"/>
</svg>
